<svg version="1.1" xmlns="http://www.w3.org/2000/svg" width="32" height="32" xmlns:xlink="http://www.w3.org/1999/xlink" preserveAspectRatio="xMidYMid meet" viewBox="685 371 443 189">

    
	<g data-item-type="text" data-item="Business" id="logo__item--business" class="logo__item">
                <g class="logo__item__inner" transform="translate(822.7109375 528.7063239893989) scale(1 1) rotate(0 0 0)">
                    <text data-part-id="logo__item--business" dy="0" dominant-baseline="auto" alignment-baseline="auto" font-family="Montserrat" font-size="32px" fill="#404041" letter-spacing="0" font-weight="bold" font-style="normal" data-font-family="Montserrat" data-font-weight="bold" data-font-style="normal" data-ttf-url="/builder_assets/fontsttf/font-montserrat-bold-normal.ttf">X Airline</text>
                </g>
            </g><g data-item-type="text" id="logo__item--tagline_1" data-item="Tagline" class="logo__item">
    <g class="logo__item__inner" transform="translate(688.1015625 554.2063239893989) scale(1 1) rotate(0 0 0)">
        <text dy="0" dominant-baseline="auto" alignment-baseline="auto" font-family="Open Sans--normal--normal" font-size="18px" fill="#44C7F4" letter-spacing="1" data-font-family="Open Sans" data-font-weight="normal" data-font-style="normal" font-weight="normal" font-style="normal" data-ttf-url="/builder_assets/fontsttf/font-open-sans-normal-normal.ttf" data-part-id="logo__item--tagline_1__0">Yet another virtual passenger/cargo plugin</text>
    </g>
</g><g data-item-type="image" data-item="Image" data-logo-item="" id="logo__item--logo_0" class="logo__item">
    <g class="logo__item__inner" transform="translate(789.8912018193516 360.5) scale(1.4185401643917255 1.4185401643917255) rotate(0 0 0)">
        
<g>
	<path fill="#404041" d="M63.339,65.75l-4.03-9.255l5.06-2.124l11.62,6.338c0,0,14.007-6.196,16.149-4.035   c2.115,2.138-7.9,7.689-15.396,12.025c-0.086,0.049-0.169,0.1-0.255,0.146c-7.523,4.356-33.179,17.363-52.458,13.786   C4.75,79.055,0.028,58.859,24.582,31.911C38.903,15.614,51.965,10.21,51.965,10.21S22.638,26.224,15.622,57.33   c-3.445,19.94,26.271,18.544,26.271,18.544l-2.99-4.451l4.094-1.912c0,0,5.663,2.073,9.835,0.638   C57.005,68.718,63.339,65.75,63.339,65.75z" data-part-id="logo__item--logo_0__0"></path>
	<g>
		
			<radialGradient id="SVGID_1_" cx="57.1855" cy="23.1943" r="79.7563" gradientTransform="matrix(1.0032 0 0 1.0134 -0.3735 0.0255)" gradientUnits="userSpaceOnUse">
			<stop offset="0" style="stop-color:#44C7F4"></stop>
			<stop offset="0.1835" style="stop-color:#42C3F0"></stop>
			<stop offset="0.3547" style="stop-color:#3CB8E5"></stop>
			<stop offset="0.5211" style="stop-color:#33A5D3"></stop>
			<stop offset="0.6845" style="stop-color:#268BB9"></stop>
			<stop offset="0.8442" style="stop-color:#156999"></stop>
			<stop offset="1" style="stop-color:#004071"></stop>
		</radialGradient>
		<path fill="url(#SVGID_1_)" d="M8.653,53.389c2.714-7.104,7.7-14.67,14.822-22.487c3.523-4.009,6.973-7.358,10.126-10.105    C19.32,25.167,8.84,38.365,8.387,54.107C8.474,53.867,8.562,53.625,8.653,53.389z" data-part-id="logo__item--logo_0__1"></path>
		
			<radialGradient id="SVGID_2_" cx="57.1826" cy="23.1953" r="79.751" gradientTransform="matrix(1.0032 0 0 1.0134 -0.3735 0.0255)" gradientUnits="userSpaceOnUse">
			<stop offset="0" style="stop-color:#44C7F4"></stop>
			<stop offset="0.1835" style="stop-color:#42C3F0"></stop>
			<stop offset="0.3547" style="stop-color:#3CB8E5"></stop>
			<stop offset="0.5211" style="stop-color:#33A5D3"></stop>
			<stop offset="0.6845" style="stop-color:#268BB9"></stop>
			<stop offset="0.8442" style="stop-color:#156999"></stop>
			<stop offset="1" style="stop-color:#004071"></stop>
		</radialGradient>
		<path fill="url(#SVGID_2_)" d="M41.761,19.324c-1.404,1.18-2.874,2.492-4.373,3.936c-7.308,7.042-16.761,18.718-20.301,34.368    c-0.694,4.045,0.023,7.276,2.19,9.883c4.7,5.645,14.954,6.683,19.796,6.848l-2.393-3.563l6.241-2.908l0.581,0.208    c0.023,0.01,2.936,1.052,5.937,1.052h0.005c1.104,0,2.086-0.146,2.907-0.425c2.912-1.001,6.957-2.788,9.024-3.729l-4.045-9.301    l7.121-2.988l11.61,6.328c0.703-0.296,1.893-0.793,3.323-1.345c0.056-0.83,0.084-1.67,0.084-2.52    c0-19.834-15.914-35.911-35.547-35.911C43.196,19.258,42.479,19.281,41.761,19.324z" data-part-id="logo__item--logo_0__2"></path>
		
			<radialGradient id="SVGID_3_" cx="57.1875" cy="23.1924" r="79.7592" gradientTransform="matrix(1.0032 0 0 1.0134 -0.3735 0.0255)" gradientUnits="userSpaceOnUse">
			<stop offset="0" style="stop-color:#44C7F4"></stop>
			<stop offset="0.1835" style="stop-color:#42C3F0"></stop>
			<stop offset="0.3547" style="stop-color:#3CB8E5"></stop>
			<stop offset="0.5211" style="stop-color:#33A5D3"></stop>
			<stop offset="0.6845" style="stop-color:#268BB9"></stop>
			<stop offset="0.8442" style="stop-color:#156999"></stop>
			<stop offset="1" style="stop-color:#004071"></stop>
		</radialGradient>
		<path fill="url(#SVGID_3_)" d="M58.601,78.899c-10.289,3.884-19.539,5.856-27.484,5.856c-2.591,0-5.066-0.217-7.358-0.642    c-0.413-0.076-0.82-0.166-1.226-0.255c5.953,4.535,13.361,7.226,21.391,7.226c14.041,0,26.184-8.227,31.961-20.167    C72.872,72.589,66.515,75.906,58.601,78.899z" data-part-id="logo__item--logo_0__3"></path>
	</g>
	<path fill="#231F20" d="M33.292,27.949c-1.256,2.051-2.501,4.085-3.682,6.152c-0.597,1.027-1.187,2.058-1.751,3.101l-0.847,1.563   c-0.281,0.519-0.555,1.041-0.823,1.567c-0.271,0.524-0.534,1.053-0.791,1.581c-0.26,0.528-0.52,1.057-0.768,1.588   c-0.498,1.064-0.986,2.131-1.43,3.209c-0.448,1.078-0.878,2.159-1.253,3.254c-0.385,1.095-0.727,2.194-1.01,3.303   c-0.292,1.109-0.519,2.228-0.675,3.342c-0.16,1.114-0.229,2.232-0.203,3.331c0.026,1.104,0.17,2.187,0.439,3.229   c0.136,0.521,0.313,1.024,0.519,1.521c0.202,0.495,0.443,0.977,0.722,1.438c0.278,0.458,0.592,0.901,0.941,1.317   c0.349,0.421,0.731,0.812,1.132,1.194c0.808,0.759,1.735,1.415,2.724,1.991c1.97,1.176,4.193,1.987,6.467,2.709l-0.03,0.161   c-2.341-0.411-4.661-1.033-6.82-2.077c-1.074-0.523-2.1-1.156-3.035-1.917c-0.932-0.758-1.765-1.646-2.442-2.651   c-0.677-1.001-1.196-2.109-1.546-3.271c-0.351-1.157-0.54-2.359-0.601-3.568c-0.118-2.416,0.25-4.833,0.845-7.159   c0.606-2.327,1.451-4.587,2.423-6.777c0.975-2.195,2.082-4.323,3.273-6.4c2.39-4.148,5.092-8.113,8.094-11.834L33.292,27.949z" data-part-id="logo__item--logo_0__4"></path>
</g>

    </g>
</g></svg>